# Blender v2.92.0 OBJ File: 'Baguette.blend'
# www.blender.org
mtllib Baguette.mtl
o Baguette_Cylinder
v -0.036117 -0.016376 -0.082245
v -0.037189 0.038490 -0.083391
v 0.043097 -0.016298 -0.069332
v 0.043097 0.038774 -0.069332
v 0.103963 -0.016298 -0.037365
v 0.103963 0.038774 -0.037365
v 0.136983 -0.016298 0.001981
v 0.136983 0.038774 0.001981
v 0.134584 -0.016298 0.039643
v 0.134584 0.038774 0.039643
v 0.089506 -0.016298 0.066886
v 0.089506 0.038774 0.066886
v 0.021530 -0.016298 0.076782
v 0.021530 0.038774 0.076782
v -0.053797 -0.016298 0.063715
v -0.053797 0.038774 0.063715
v -0.122262 -0.016310 0.032211
v -0.122483 0.038710 0.031908
v -0.174017 -0.016219 -0.006049
v -0.160668 0.039046 -0.007775
v -0.181431 -0.016652 -0.045319
v -0.178518 0.038107 -0.048258
v -0.128030 -0.017328 -0.075995
v -0.132447 0.036882 -0.080718
vt 1.000000 0.500000
vt 1.000000 1.000000
vt 0.916667 1.000000
vt 0.916667 0.500000
vt 0.833333 1.000000
vt 0.833333 0.500000
vt 0.750000 1.000000
vt 0.750000 0.500000
vt 0.666667 1.000000
vt 0.666667 0.500000
vt 0.583333 1.000000
vt 0.583333 0.500000
vt 0.500000 1.000000
vt 0.500000 0.500000
vt 0.416667 1.000000
vt 0.416667 0.500000
vt 0.333333 1.000000
vt 0.333333 0.500000
vt 0.250000 1.000000
vt 0.250000 0.500000
vt 0.166667 1.000000
vt 0.166667 0.500000
vt 0.083333 1.000000
vt 0.083333 0.500000
vt 0.000000 1.000000
vt 0.000000 0.500000
vt 0.370000 0.457846
vt 0.250000 0.490000
vt 0.130000 0.457846
vt 0.042154 0.370000
vt 0.010000 0.250000
vt 0.042154 0.130000
vt 0.130000 0.042154
vt 0.250000 0.010000
vt 0.370000 0.042154
vt 0.457846 0.130000
vt 0.490000 0.250000
vt 0.457846 0.370000
vt 0.750000 0.490000
vt 0.870000 0.457846
vt 0.957846 0.370000
vt 0.990000 0.250000
vt 0.957846 0.130000
vt 0.870000 0.042154
vt 0.750000 0.010000
vt 0.630000 0.042154
vt 0.542154 0.130000
vt 0.510000 0.250000
vt 0.542154 0.370000
vt 0.630000 0.457846
vn 0.1668 -0.0087 -0.9860
vn 0.4650 0.0000 -0.8853
vn 0.7660 0.0000 -0.6429
vn 0.9980 0.0000 0.0636
vn 0.5172 0.0000 0.8558
vn 0.1441 0.0000 0.9896
vn -0.1709 0.0000 0.9853
vn -0.4191 0.0017 0.9079
vn -0.6519 0.0915 0.7528
vn -0.9430 0.1519 0.2961
vn -0.5356 -0.0666 -0.8418
vn -0.0468 -0.0560 -0.9973
vn -0.0013 1.0000 -0.0047
vn 0.0008 -1.0000 0.0025
usemtl Material.001
s off
f 1/1/1 2/2/1 4/3/1 3/4/1
f 3/4/2 4/3/2 6/5/2 5/6/2
f 5/6/3 6/5/3 8/7/3 7/8/3
f 7/8/4 8/7/4 10/9/4 9/10/4
f 9/10/5 10/9/5 12/11/5 11/12/5
f 11/12/6 12/11/6 14/13/6 13/14/6
f 13/14/7 14/13/7 16/15/7 15/16/7
f 15/16/8 16/15/8 18/17/8 17/18/8
f 17/18/9 18/17/9 20/19/9 19/20/9
f 19/20/10 20/19/10 22/21/10 21/22/10
f 21/22/11 22/21/11 24/23/11 23/24/11
f 23/24/12 24/23/12 2/25/12 1/26/12
usemtl Material.002
f 4/27/13 2/28/13 24/29/13 22/30/13 20/31/13 18/32/13 16/33/13 14/34/13 12/35/13 10/36/13 8/37/13 6/38/13
f 1/39/14 3/40/14 5/41/14 7/42/14 9/43/14 11/44/14 13/45/14 15/46/14 17/47/14 19/48/14 21/49/14 23/50/14
