# Blender v2.92.0 OBJ File: 'Meat.blend'
# www.blender.org
mtllib Meat.mtl
o Cylinder.001
v -0.021510 0.000929 -0.072489
v -0.021535 0.006687 -0.072432
v 0.019953 -0.002084 -0.053007
v 0.019787 0.003720 -0.052767
v 0.053395 -0.003002 -0.023321
v 0.053113 0.002967 -0.022851
v 0.076110 -0.002064 0.006628
v 0.075944 0.003776 0.006997
v 0.077519 -0.003100 0.036926
v 0.077489 0.002494 0.036993
v 0.052950 -0.000762 0.065128
v 0.052999 0.004825 0.064993
v 0.017821 0.001221 0.077809
v 0.017897 0.006865 0.077601
v -0.015893 -0.002292 0.064965
v -0.015785 0.003310 0.064648
v -0.046562 -0.005934 0.037527
v -0.046423 -0.000356 0.037196
v -0.073425 -0.002309 0.005580
v -0.073317 0.003387 0.005424
v -0.081828 0.002666 -0.031830
v -0.081751 0.008456 -0.031871
v -0.062114 0.002946 -0.063946
v -0.062065 0.008729 -0.063957
vt 1.000000 0.500000
vt 1.000000 1.000000
vt 0.916667 1.000000
vt 0.916667 0.500000
vt 0.833333 1.000000
vt 0.833333 0.500000
vt 0.750000 1.000000
vt 0.750000 0.500000
vt 0.666667 1.000000
vt 0.666667 0.500000
vt 0.583333 1.000000
vt 0.583333 0.500000
vt 0.500000 1.000000
vt 0.500000 0.500000
vt 0.416667 1.000000
vt 0.416667 0.500000
vt 0.333333 1.000000
vt 0.333333 0.500000
vt 0.250000 1.000000
vt 0.250000 0.500000
vt 0.166667 1.000000
vt 0.166667 0.500000
vt 0.370000 0.457846
vt 0.250000 0.490000
vt 0.130000 0.457846
vt 0.042154 0.370000
vt 0.010000 0.250000
vt 0.042154 0.130000
vt 0.130000 0.042154
vt 0.250000 0.010000
vt 0.370000 0.042154
vt 0.457846 0.130000
vt 0.490000 0.250000
vt 0.457846 0.370000
vt 0.083333 1.000000
vt 0.083333 0.500000
vt 0.000000 1.000000
vt 0.000000 0.500000
vt 0.750000 0.490000
vt 0.870000 0.457846
vt 0.957846 0.370000
vt 0.990000 0.250000
vt 0.957846 0.130000
vt 0.870000 0.042154
vt 0.750000 0.010000
vt 0.630000 0.042154
vt 0.542154 0.130000
vt 0.510000 0.250000
vt 0.542154 0.370000
vt 0.630000 0.457846
vn 0.4291 0.0303 -0.9028
vn 0.6653 0.0701 -0.7433
vn 0.7924 0.0731 -0.6057
vn 0.9987 0.0190 -0.0482
vn 0.7535 0.0027 0.6575
vn 0.3399 0.0249 0.9401
vn -0.3616 0.0493 0.9310
vn -0.6697 0.0577 0.7404
vn -0.7610 0.0446 0.6472
vn -0.9748 0.0194 0.2223
vn 0.0090 0.9998 0.0181
vn -0.8523 0.0069 -0.5230
vn -0.2051 0.0044 -0.9787
vn -0.0097 -0.9998 -0.0161
usemtl Meat
s off
f 1/1/1 2/2/1 4/3/1 3/4/1
f 3/4/2 4/3/2 6/5/2 5/6/2
f 5/6/3 6/5/3 8/7/3 7/8/3
f 7/8/4 8/7/4 10/9/4 9/10/4
f 9/10/5 10/9/5 12/11/5 11/12/5
f 11/12/6 12/11/6 14/13/6 13/14/6
f 13/14/7 14/13/7 16/15/7 15/16/7
f 15/16/8 16/15/8 18/17/8 17/18/8
f 17/18/9 18/17/9 20/19/9 19/20/9
f 19/20/10 20/19/10 22/21/10 21/22/10
f 4/23/11 2/24/11 24/25/11 22/26/11 20/27/11 18/28/11 16/29/11 14/30/11 12/31/11 10/32/11 8/33/11 6/34/11
f 21/22/12 22/21/12 24/35/12 23/36/12
f 23/36/13 24/35/13 2/37/13 1/38/13
f 1/39/14 3/40/14 5/41/14 7/42/14 9/43/14 11/44/14 13/45/14 15/46/14 17/47/14 19/48/14 21/49/14 23/50/14
