# Blender v2.92.0 OBJ File: 'BeefBowl.blend'
# www.blender.org
mtllib MeatOnly.mtl
o Cylinder.072
v -0.050014 0.080931 0.047347
v -0.050111 0.083770 0.047454
v -0.034201 0.083619 0.059171
v -0.034308 0.086512 0.059316
v -0.018949 0.085486 0.072788
v -0.019044 0.088428 0.072986
v -0.005607 0.083130 0.084269
v -0.005713 0.086023 0.084468
v -0.002000 0.079194 0.096090
v -0.002127 0.082023 0.096209
v -0.011290 0.077739 0.107754
v -0.011402 0.080545 0.107790
v -0.026380 0.077258 0.112840
v -0.026475 0.080073 0.112841
v -0.042374 0.075484 0.107130
v -0.042485 0.078300 0.107110
v -0.057139 0.074100 0.094769
v -0.057251 0.076915 0.094764
v -0.069394 0.075894 0.079644
v -0.069471 0.078715 0.079689
v -0.073467 0.078740 0.062263
v -0.073520 0.081564 0.062329
v -0.065718 0.080003 0.048547
v -0.065778 0.082826 0.048621
v -0.050014 0.080931 0.047347
v -0.050111 0.083770 0.047454
v -0.034201 0.083619 0.059171
v -0.034308 0.086512 0.059316
v -0.018949 0.085486 0.072788
v -0.019044 0.088428 0.072986
v -0.005607 0.083130 0.084269
v -0.005713 0.086023 0.084468
v -0.002000 0.079194 0.096090
v -0.002127 0.082023 0.096209
v -0.011290 0.077739 0.107754
v -0.011402 0.080545 0.107790
v -0.026380 0.077258 0.112840
v -0.026475 0.080073 0.112841
v -0.042374 0.075484 0.107130
v -0.042485 0.078300 0.107110
v -0.057139 0.074100 0.094769
v -0.057251 0.076915 0.094764
v -0.069394 0.075894 0.079644
v -0.069471 0.078715 0.079689
v -0.073467 0.078740 0.062263
v -0.073520 0.081564 0.062329
v -0.065718 0.080003 0.048547
v -0.065778 0.082826 0.048621
vt 1.000000 0.500000
vt 1.000000 1.000000
vt 0.916667 1.000000
vt 0.916667 0.500000
vt 0.833333 1.000000
vt 0.833333 0.500000
vt 0.750000 1.000000
vt 0.750000 0.500000
vt 0.666667 1.000000
vt 0.666667 0.500000
vt 0.583333 1.000000
vt 0.583333 0.500000
vt 0.500000 1.000000
vt 0.500000 0.500000
vt 0.416667 1.000000
vt 0.416667 0.500000
vt 0.333333 1.000000
vt 0.333333 0.500000
vt 0.250000 1.000000
vt 0.250000 0.500000
vt 0.166667 1.000000
vt 0.166667 0.500000
vt 0.370000 0.457846
vt 0.250000 0.490000
vt 0.130000 0.457846
vt 0.042154 0.370000
vt 0.010000 0.250000
vt 0.042154 0.130000
vt 0.130000 0.042154
vt 0.250000 0.010000
vt 0.370000 0.042154
vt 0.457846 0.130000
vt 0.490000 0.250000
vt 0.457846 0.370000
vt 0.083333 1.000000
vt 0.083333 0.500000
vt 0.000000 1.000000
vt 0.000000 0.500000
vt 0.750000 0.490000
vt 0.870000 0.457846
vt 0.957846 0.370000
vt 0.990000 0.250000
vt 0.957846 0.130000
vt 0.870000 0.042154
vt 0.750000 0.010000
vt 0.630000 0.042154
vt 0.542154 0.130000
vt 0.510000 0.250000
vt 0.542154 0.370000
vt 0.630000 0.457846
vt 1.000000 0.500000
vt 1.000000 1.000000
vt 0.916667 1.000000
vt 0.916667 0.500000
vt 0.833333 1.000000
vt 0.833333 0.500000
vt 0.750000 1.000000
vt 0.750000 0.500000
vt 0.666667 1.000000
vt 0.666667 0.500000
vt 0.583333 1.000000
vt 0.583333 0.500000
vt 0.500000 1.000000
vt 0.500000 0.500000
vt 0.416667 1.000000
vt 0.416667 0.500000
vt 0.333333 1.000000
vt 0.333333 0.500000
vt 0.250000 1.000000
vt 0.250000 0.500000
vt 0.166667 1.000000
vt 0.166667 0.500000
vt 0.370000 0.457846
vt 0.250000 0.490000
vt 0.130000 0.457846
vt 0.042154 0.370000
vt 0.010000 0.250000
vt 0.042154 0.130000
vt 0.130000 0.042154
vt 0.250000 0.010000
vt 0.370000 0.042154
vt 0.457846 0.130000
vt 0.490000 0.250000
vt 0.457846 0.370000
vt 0.083333 1.000000
vt 0.083333 0.500000
vt 0.000000 1.000000
vt 0.000000 0.500000
vt 0.750000 0.490000
vt 0.870000 0.457846
vt 0.957846 0.370000
vt 0.990000 0.250000
vt 0.957846 0.130000
vt 0.870000 0.042154
vt 0.750000 0.010000
vt 0.630000 0.042154
vt 0.542154 0.130000
vt 0.510000 0.250000
vt 0.542154 0.370000
vt 0.630000 0.457846
vn 0.5924 0.0564 -0.8037
vn 0.6605 0.0669 -0.7479
vn 0.6582 0.0737 -0.7492
vn 0.9600 0.0544 -0.2747
vn 0.7803 0.0158 0.6252
vn 0.3184 0.0052 0.9479
vn -0.3357 -0.0092 0.9419
vn -0.6403 -0.0220 0.7678
vn -0.7783 -0.0305 0.6271
vn -0.9744 -0.0267 0.2234
vn -0.1191 0.9813 0.1514
vn -0.8705 -0.0051 -0.4922
vn -0.0770 0.0298 -0.9966
vn 0.1175 -0.9817 -0.1495
usemtl Meat
s off
f 1/1/1 2/2/1 4/3/1 3/4/1
f 3/4/2 4/3/2 6/5/2 5/6/2
f 5/6/3 6/5/3 8/7/3 7/8/3
f 7/8/4 8/7/4 10/9/4 9/10/4
f 9/10/5 10/9/5 12/11/5 11/12/5
f 11/12/6 12/11/6 14/13/6 13/14/6
f 13/14/7 14/13/7 16/15/7 15/16/7
f 15/16/8 16/15/8 18/17/8 17/18/8
f 17/18/9 18/17/9 20/19/9 19/20/9
f 19/20/10 20/19/10 22/21/10 21/22/10
f 4/23/11 2/24/11 24/25/11 22/26/11 20/27/11 18/28/11 16/29/11 14/30/11 12/31/11 10/32/11 8/33/11 6/34/11
f 21/22/12 22/21/12 24/35/12 23/36/12
f 23/36/13 24/35/13 2/37/13 1/38/13
f 1/39/14 3/40/14 5/41/14 7/42/14 9/43/14 11/44/14 13/45/14 15/46/14 17/47/14 19/48/14 21/49/14 23/50/14
f 25/51/1 26/52/1 28/53/1 27/54/1
f 27/54/2 28/53/2 30/55/2 29/56/2
f 29/56/3 30/55/3 32/57/3 31/58/3
f 31/58/4 32/57/4 34/59/4 33/60/4
f 33/60/5 34/59/5 36/61/5 35/62/5
f 35/62/6 36/61/6 38/63/6 37/64/6
f 37/64/7 38/63/7 40/65/7 39/66/7
f 39/66/8 40/65/8 42/67/8 41/68/8
f 41/68/9 42/67/9 44/69/9 43/70/9
f 43/70/10 44/69/10 46/71/10 45/72/10
f 28/73/11 26/74/11 48/75/11 46/76/11 44/77/11 42/78/11 40/79/11 38/80/11 36/81/11 34/82/11 32/83/11 30/84/11
f 45/72/12 46/71/12 48/85/12 47/86/12
f 47/86/13 48/85/13 26/87/13 25/88/13
f 25/89/14 27/90/14 29/91/14 31/92/14 33/93/14 35/94/14 37/95/14 39/96/14 41/97/14 43/98/14 45/99/14 47/100/14
